<svg xmlns="http://www.w3.org/2000/svg" viewBox="0 0 256 256" fill="currentColor">
  <path d="M206.4 36.3c-14.9 2.5-32.2 18.7-48.4 39.4-5.1 6.5-10.2 13.6-15 20.8-2.9-4.3-5.9-8.6-8.9-12.6C118 63.5 97.1 43 79.6 37.1 67.7 33.1 57 35.6 50 42.8c-7.1 7.4-9.8 19.9-6.6 35.5 3.9 19.4 16.2 40.3 30.9 53.9-14.8 12.9-25.7 31.5-28.7 49.2-2.4 14.1.7 26.3 8.6 33.7 7.5 7 18.7 8.7 30.9 4.4 13.6-4.8 28.5-17.3 41.2-33.7 12.8 17 28.1 29.8 42.1 34.8 12.7 4.5 24.2 3 32.1-4.4 7.8-7.3 10.9-19.4 8.5-33.3-3.1-18-14.3-36.9-29.4-50 14.7-13.1 26.9-34 30.7-53.7 3.1-16.2.3-28.8-7.1-36.3-6.9-7.1-17.3-9.9-29.8-7.3z" />
</svg>
