<svg xmlns="http://www.w3.org/2000/svg" viewBox="0 0 24 24" fill="currentColor">
  <path d="M12.04 2C7.52 2 5 5.06 5 8.35c0 1.54.86 3.46 2.23 4.07.21.09.33.05.38-.14l.27-1.09a.34.34 0 0 0-.08-.33 3.05 3.05 0 0 1-.68-2.02c0-2.46 1.84-4.67 5.01-4.67 2.73 0 4.63 1.79 4.63 4.54 0 3-1.64 5.08-3.77 5.08a1.68 1.68 0 0 1-1.7-2.05c.18-.74.52-1.55.8-2.3a2.91 2.91 0 0 0-.6-2.68 2.11 2.11 0 0 0-1.6-.7 2.44 2.44 0 0 0-2.44 2.5 3.92 3.92 0 0 0 .3 1.44l-1.15 4.87a10.29 10.29 0 0 0-.09 3.03l.25.01a6.46 6.46 0 0 0 1.94-2.2l.12-.32c.18-.47.71-2.23.71-2.23a3.1 3.1 0 0 0 2.62 1.32c3.44 0 5.82-3 5.82-7 0-3.77-2.87-6.73-7.16-6.73z" />
</svg>
