<svg xmlns="http://www.w3.org/2000/svg" viewBox="0 0 512 512" fill="currentColor">
  <path d="M256 64C150.4 64 64 150.4 64 256s86.4 192 192 192 192-86.4 192-192S361.6 64 256 64zm72.5 213.5c-4.2 25.4-19.8 44.2-44.4 52.9-10 3.6-21.9 5.6-35.5 5.6-21.6 0-38.1-5.6-49.1-16.7-10.1-10.3-15.4-25.5-15.4-45.1h40c0 11.1 2.3 18.7 6.9 23.2 4.8 4.7 12.8 7.1 24 7.1 9.7 0 17.6-1.2 23.5-3.3 13.4-4.9 20.3-13.7 22.1-27.9-4.9-3.1-11.2-5.7-18.8-7.8-9.4-2.5-20.9-4.5-34.2-5.8-23.3-2.4-40.9-8.8-52.2-19-11.7-10.7-17.6-25.8-17.6-45 0-19 6.8-34.4 20.1-45.7 12.8-10.9 30.7-16.4 53-16.4 22.9 0 40.5 5.3 52.4 15.7 11.4 9.9 18.3 24.3 20.4 42.9l-39.7 4.6c-1.4-10.6-5-18.4-10.7-23.3-5.9-5-14.9-7.5-27.2-7.5-10.5 0-18.6 2-24.1 6-5.2 3.8-7.8 9.1-7.8 16.5 0 7.1 2.4 12.7 7.4 16.7 5.5 4.5 15.9 7.7 30.7 9.3 25.9 2.8 45.1 8 57.2 15.4 12.9 7.9 20.6 19.4 22.6 34.6z" />
</svg>
