<svg xmlns="http://www.w3.org/2000/svg" viewBox="0 0 512 512" fill="currentColor">
  <path d="M412.19 118.66a109.27 109.27 0 0 1-24.27-20.62c-18.1-20.71-24.86-41.72-27.35-56.43H350.13 267.69V334.78c0 4.28 0 8.51-.15 12.69-1.38 29.27-16.63 55.72-41.25 70.47a73.88 73.88 0 0 1-36.31 10.08A74.41 74.41 0 0 1 148 404.86a71.38 71.38 0 0 1-9.73-36.3c1.38-29.38 16.63-55.88 41.4-70.63a73.25 73.25 0 0 1 36.16-10h.15a70.52 70.52 0 0 1 15.43 1.73V204.41a142.37 142.37 0 0 0-16.13-.9h-.3a148.6 148.6 0 0 0-73.19 19.77c-35.59 20.57-59.78 56.67-66.47 97.46a140.1 140.1 0 0 0-1.93 23.19c0 38.41 14.86 74.47 41.78 101.27C134.46 472.65 170.86 487 209.27 487a152 152 0 0 0 23.34-1.78c51.76-8.21 94.35-45.73 109-96.54a145.23 145.23 0 0 0 4.4-36.21V176.44a178.49 178.49 0 0 0 24.42 14.31c19.71 9.89 40.81 15.85 62.72 17.7V131.27a120.16 120.16 0 0 1-21.96-3.09 111.9 111.9 0 0 1-22-9.52z" />
</svg>
