<svg xmlns="http://www.w3.org/2000/svg" width="24" height="24" viewBox="0 0 24 24" fill="none" stroke="currentColor" stroke-width="2" stroke-linecap="round" stroke-linejoin="round">
  <path d="M22.54 6.42a2.78 2.78 0 0 0-1.94-2C18.88 4 12 4 12 4s-6.88 0-8.6.42a2.78 2.78 0 0 0-1.94 2A29.94 29.94 0 0 0 1 11.75a29.94 29.94 0 0 0 .46 5.33 2.78 2.78 0 0 0 1.94 2C5.12 19 12 19 12 19s6.88 0 8.6-.42a2.78 2.78 0 0 0 1.94-2A29.94 29.94 0 0 0 23 11.75a29.94 29.94 0 0 0-.46-5.33z" />
  <polygon points="10 9 16 12 10 15 10 9" />
</svg>
